<?xml version="1.0" standalone="no"?>
<!DOCTYPE svg PUBLIC "-//W3C//DTD SVG 20010904//EN"
 "http://www.w3.org/TR/2001/REC-SVG-20010904/DTD/svg10.dtd">
<svg version="1.0" xmlns="http://www.w3.org/2000/svg"
 width="512.000000pt" height="512.000000pt" viewBox="0 0 512.000000 512.000000"
 preserveAspectRatio="xMidYMid meet">
<metadata>
Created by potrace 1.15, written by Peter Selinger 2001-2017
</metadata>
<g transform="translate(0.000000,512.000000) scale(0.100000,-0.100000)"
fill="#000000" stroke="none">
<path d="M3345 4911 l-50 -6 -22 -63 c-13 -34 -30 -102 -40 -150 -9 -48 -23
-95 -31 -104 -8 -9 -12 -25 -9 -35 4 -13 5 -12 6 6 0 13 3 22 7 19 3 -3 0 -43
-6 -89 -14 -110 -30 -314 -31 -409 -1 -60 -3 -68 -9 -40 l-7 35 -2 -34 c-1
-30 -4 -33 -25 -29 -14 3 -31 1 -38 -3 -8 -6 0 -9 25 -10 50 -2 54 -3 63 -11
25 -26 31 -3 38 145 12 249 46 462 99 612 14 39 16 40 60 40 25 0 44 2 43 5
-5 9 32 38 39 32 4 -4 -1 9 -11 28 -10 19 -18 37 -19 40 -1 11 -17 30 -23 28
-4 0 -29 -4 -57 -7z"/>
<path d="M2884 4733 c5 -9 -3 -10 -28 -6 -66 11 -81 0 -104 -74 -69 -220 -114
-688 -92 -965 5 -67 13 -163 16 -211 6 -73 10 -87 23 -85 17 4 18 56 2 208
-12 128 5 565 28 695 20 115 76 315 87 315 3 0 3 -10 0 -22 -3 -13 -3 -17 0
-10 3 6 20 13 37 13 l32 1 -30 7 -30 7 37 5 c20 3 34 1 32 -3 -3 -4 -1 -8 4
-8 5 0 12 9 15 21 3 12 9 19 14 16 4 -3 8 8 8 23 0 15 -2 27 -5 26 -6 -3 -40
32 -39 40 0 3 -3 9 -7 12 -4 4 -4 2 0 -5z"/>
<path d="M3573 4157 c-4 -6 -6 -25 -5 -42 2 -23 1 -27 -7 -15 -8 11 -11 11
-11 2 0 -7 7 -15 15 -18 21 -8 19 -24 -2 -25 -12 0 -14 -2 -5 -6 8 -3 24 0 36
6 14 8 33 9 61 2 l40 -9 -45 -1 c-25 -1 -73 -8 -105 -18 -33 -9 -70 -17 -82
-17 -11 -1 -19 -4 -17 -7 2 -4 -3 -10 -12 -13 -10 -4 -13 -2 -7 7 6 11 -16 -2
-70 -39 -13 -8 -49 -10 -126 -7 -83 4 -121 2 -165 -11 -73 -22 -70 -29 4 -9
68 18 220 12 298 -12 54 -16 54 -16 90 9 102 70 239 95 340 62 115 -39 189
-115 218 -226 18 -69 13 -119 -18 -193 -22 -51 -42 -67 -81 -67 -25 0 -25 0
-10 43 55 157 -109 306 -262 238 -47 -21 -47 -22 -30 -41 10 -11 22 -17 27
-14 17 11 57 -6 63 -26 12 -37 -6 -43 -37 -13 l-30 28 20 -35 c11 -19 25 -53
32 -75 7 -22 39 -71 72 -108 129 -150 222 -317 259 -466 39 -156 17 -328 -63
-485 l-25 -49 -7 33 c-12 62 -51 80 -80 38 -27 -38 -16 -110 20 -131 19 -11
-39 -60 -102 -88 -126 -56 -294 -22 -463 94 -110 75 -295 281 -303 337 -2 14
-8 24 -14 23 -6 -1 -28 34 -49 78 -22 43 -42 79 -45 79 -4 0 -34 25 -67 55
-72 65 -120 136 -151 225 l-23 65 5 -90 c7 -145 54 -281 148 -437 27 -46 50
-86 51 -91 3 -11 72 -90 157 -180 89 -93 187 -170 290 -227 41 -23 64 -38 50
-35 -42 12 -172 84 -241 136 -141 105 -324 321 -405 481 -43 84 -82 193 -99
274 -9 43 -17 80 -19 81 -6 6 -333 -334 -452 -470 -148 -168 -358 -430 -462
-575 l-81 -113 -17 28 c-10 15 -29 40 -42 55 -13 14 -22 31 -18 36 3 5 -9 22
-27 38 l-32 29 25 -30 c17 -21 12 -18 -13 7 -21 21 -36 42 -33 46 3 5 -41 53
-97 108 l-102 99 95 -101 c76 -80 70 -75 -30 25 -69 69 -116 114 -105 100 11
-14 2 -7 -19 15 -22 23 -33 32 -25 22 14 -19 13 -19 -13 -2 -26 17 -41 35 -16
20 7 -4 8 -3 4 5 -4 6 -11 9 -16 6 -5 -3 -24 2 -42 11 -32 17 -130 36 -124 25
3 -8 -42 -50 -48 -44 -2 3 -2 -6 1 -19 3 -14 1 -18 -4 -11 -4 6 -7 -36 -6 -94
1 -58 5 -108 8 -111 3 -3 5 -16 5 -29 0 -20 41 -207 56 -257 5 -13 2 -17 -7
-12 -8 4 -7 2 2 -6 18 -15 37 -64 21 -54 -6 4 -8 -2 -5 -15 4 -14 8 -17 13 -9
5 9 10 6 15 -9 3 -11 3 -26 -1 -32 -4 -7 -3 -9 3 -6 6 4 15 -5 22 -19 14 -31
14 -37 1 -29 -6 3 -7 -1 -4 -9 3 -9 9 -14 14 -11 4 2 12 -7 19 -21 6 -14 7
-23 1 -19 -6 3 -7 -1 -4 -9 3 -9 10 -14 14 -11 4 3 11 -2 14 -11 3 -9 2 -12
-5 -9 -5 4 -4 -8 4 -27 21 -48 87 -165 87 -153 0 6 5 2 11 -8 5 -9 7 -22 3
-29 -5 -7 -3 -8 6 -3 10 6 12 4 7 -9 -4 -9 -3 -15 2 -11 12 7 51 -42 51 -64 0
-9 -9 -40 -21 -70 -28 -74 -57 -202 -64 -286 -11 -121 30 -261 94 -319 12 -11
21 -27 21 -37 0 -10 15 -29 33 -42 43 -33 68 -44 37 -17 -23 20 -22 20 25 -3
28 -13 62 -27 78 -31 15 -3 27 -11 27 -16 0 -17 110 -12 116 5 4 8 10 15 16
15 5 0 6 -4 3 -10 -10 -16 7 -12 19 5 6 8 22 16 35 17 20 2 30 -5 48 -37 12
-22 21 -46 18 -53 -3 -8 0 -10 7 -6 8 5 9 2 5 -10 -5 -11 -3 -15 5 -10 8 5 9
2 5 -10 -4 -9 -3 -15 2 -12 9 6 35 -44 26 -52 -3 -3 -5 1 -5 9 0 11 -2 11 -8
1 -6 -9 -75 -15 -248 -22 -575 -24 -921 -57 -997 -97 -113 -58 226 -105 998
-138 227 -10 421 -13 990 -15 647 -1 1041 7 1415 30 458 27 679 58 704 99 24
38 -207 76 -614 101 -198 12 -613 29 -762 31 -102 1 -107 2 -97 20 5 11 15 16
21 13 7 -4 8 -3 4 4 -9 15 12 54 24 47 6 -3 7 0 4 8 -3 8 0 18 7 23 8 5 10 3
4 -6 -5 -8 -4 -11 3 -6 6 4 9 13 6 20 -3 8 0 17 7 22 8 5 10 3 4 -6 -5 -8 -4
-11 3 -6 6 4 9 13 6 20 -3 8 0 17 7 22 8 5 10 3 4 -6 -5 -8 -4 -11 3 -6 6 4 9
13 6 20 -3 8 0 17 7 22 8 5 10 3 4 -6 -5 -8 -4 -11 3 -6 6 4 9 13 6 20 -3 8 0
17 7 22 8 5 10 3 4 -6 -5 -8 -4 -11 3 -6 6 4 9 13 6 20 -3 8 0 17 7 22 8 5 10
3 4 -6 -5 -8 -4 -11 3 -6 6 4 9 13 6 20 -3 8 0 17 7 22 8 5 10 3 4 -6 -5 -8
-4 -11 3 -6 6 4 9 13 6 20 -3 8 0 17 7 22 8 5 10 3 4 -7 -5 -8 -4 -11 1 -6 5
5 9 16 9 25 0 9 5 17 12 17 6 0 15 4 20 9 5 5 3 6 -4 2 -19 -11 -16 9 4 25 14
12 16 12 8 0 -5 -9 -4 -12 3 -7 6 4 9 13 6 20 -3 8 0 17 7 22 8 5 10 3 4 -6
-5 -8 -4 -11 3 -6 6 4 9 13 6 20 -3 8 0 17 7 22 8 5 10 3 4 -6 -5 -8 -4 -11 3
-6 6 4 9 13 6 20 -3 8 0 17 7 22 8 5 10 3 4 -6 -5 -8 -4 -11 3 -6 6 4 9 13 6
20 -3 8 0 17 7 22 8 5 10 3 4 -6 -5 -8 -4 -11 3 -6 6 4 9 13 6 20 -3 8 0 17 7
22 8 5 10 3 4 -7 -5 -8 -4 -11 1 -6 5 5 9 16 9 25 0 9 5 17 12 17 6 0 15 4 20
9 5 5 3 6 -4 2 -19 -11 -16 9 4 25 14 12 16 12 8 0 -5 -9 -4 -12 3 -7 6 4 9
13 6 20 -3 8 0 17 7 22 8 5 10 3 4 -6 -5 -8 -4 -11 3 -6 6 4 9 13 6 20 -3 8 0
17 7 22 8 5 10 3 4 -6 -5 -8 -4 -11 3 -6 6 4 9 13 6 20 -3 8 0 17 7 22 8 5 10
3 4 -6 -5 -9 -4 -11 4 -6 6 4 9 11 6 16 -8 13 14 52 25 45 5 -3 12 0 16 6 5 8
3 9 -6 4 -8 -5 -11 -3 -8 6 3 8 10 13 16 12 6 -2 9 3 6 11 -3 8 0 17 7 22 8 5
10 3 4 -6 -5 -8 -4 -11 3 -6 6 4 9 13 6 20 -3 8 0 17 7 22 8 5 10 3 4 -6 -5
-8 -4 -11 3 -6 6 4 9 13 6 20 -3 8 0 17 7 22 8 5 10 3 4 -6 -5 -9 -4 -11 4 -6
6 4 9 11 6 16 -8 13 14 52 25 45 6 -3 7 0 4 8 -3 8 0 18 7 23 8 5 10 3 4 -6
-5 -8 -4 -11 3 -6 6 4 9 12 6 19 -2 7 3 21 12 32 8 11 12 14 8 6 -4 -9 -3 -12
4 -7 6 4 9 12 6 19 -2 7 3 21 12 32 8 11 12 14 8 6 -4 -9 -3 -12 4 -7 6 4 8
14 5 23 -5 12 -3 14 7 8 9 -5 11 -4 6 3 -9 15 22 75 34 67 6 -4 7 1 3 11 -4
12 -3 15 5 10 8 -5 10 -1 5 10 -4 12 -3 15 5 10 8 -5 10 -1 5 10 -4 12 -3 15
5 10 8 -5 10 -1 5 10 -4 12 -3 15 5 10 8 -5 10 -1 5 10 -4 10 -2 15 4 11 5 -3
9 2 9 11 -1 22 57 202 64 202 4 0 15 -7 26 -16 10 -8 12 -12 4 -8 -16 8 -16 8
45 -46 l40 -35 -30 35 c-29 34 -28 34 8 -3 22 -21 40 -37 42 -35 14 17 25 53
25 83 0 20 4 34 9 31 5 -3 23 -3 40 0 24 5 30 11 27 27 -1 11 -14 27 -27 35
l-24 14 25 -22 c30 -26 7 -16 -38 17 -36 27 -35 32 11 65 22 15 28 17 18 5
-12 -15 -12 -17 2 -12 15 6 31 45 22 54 -3 2 -33 7 -67 10 -59 6 -61 7 -39 20
13 7 21 8 17 2 -5 -7 -1 -9 9 -5 9 4 13 9 11 12 -3 3 -1 11 6 19 17 21 -4 36
-51 37 -21 1 -37 -2 -35 -5 3 -5 -39 -29 -50 -29 -4 0 -19 49 -21 65 -1 21
-16 34 -32 28 -10 -4 -14 -2 -10 4 10 16 -89 -3 -139 -28 -25 -12 -80 -46
-122 -76 -42 -31 -70 -47 -62 -36 8 10 3 6 -11 -9 -26 -29 -45 -33 -112 -21
-22 3 -33 9 -27 13 8 5 7 9 -4 13 -10 4 -16 1 -16 -8 0 -8 -4 -15 -9 -15 -13
0 -24 -74 -16 -110 4 -17 11 -28 16 -24 5 3 6 10 3 16 -4 7 -2 8 5 4 9 -6 9
-11 0 -22 -9 -11 -15 -12 -26 -3 -11 10 -12 9 -7 -5 3 -9 1 -22 -5 -29 -5 -7
-22 -67 -36 -134 -80 -379 -194 -689 -330 -893 -52 -78 -203 -247 -218 -242
-4 1 -5 -3 -1 -10 5 -8 16 -2 34 20 19 23 34 32 56 31 29 -1 29 -1 4 -9 l-25
-8 26 -1 c15 -1 32 6 39 14 7 8 18 15 24 15 6 0 4 -5 -4 -11 -12 -9 -12 -10 3
-5 10 3 21 6 23 6 3 0 3 4 0 9 -3 5 1 12 10 15 8 3 12 2 9 -4 -3 -5 1 -7 9 -4
9 3 14 9 13 13 -1 4 13 20 30 35 l33 28 -20 -44 c-11 -24 -24 -42 -29 -41 -5
1 -7 -5 -4 -15 2 -9 -3 -26 -12 -37 -16 -19 -16 -19 -5 3 7 13 9 26 7 29 -3 2
-9 -6 -13 -19 -8 -23 -10 -31 -12 -56 -1 -7 -6 -11 -10 -8 -4 2 -14 -5 -22
-17 -12 -21 -12 -21 5 -7 18 15 18 14 1 -12 -17 -26 -35 -41 -20 -16 5 7 3 8
-5 4 -7 -5 -10 -14 -7 -21 2 -7 -7 -23 -22 -36 l-27 -24 20 25 20 25 -22 -19
c-13 -11 -23 -24 -23 -30 0 -8 -138 -11 -476 -11 l-476 0 -29 35 c-16 19 -27
41 -24 48 2 7 1 10 -5 7 -12 -8 -43 52 -34 67 5 7 3 8 -6 3 -10 -6 -12 -4 -7
9 5 11 3 15 -5 10 -8 -5 -9 -2 -5 10 4 9 3 15 -1 12 -9 -6 -42 56 -42 78 0 17
58 68 69 61 5 -2 21 9 36 25 16 17 25 30 22 30 -4 0 -3 9 3 20 6 11 16 17 22
14 6 -4 8 -3 5 3 -4 6 -1 16 6 22 17 13 98 -25 104 -50 8 -28 71 51 161 203
117 197 203 372 293 598 l38 95 47 3 c69 5 307 -26 383 -50 67 -21 99 -39 159
-90 42 -36 62 -24 62 33 0 39 0 39 40 39 22 0 40 4 40 9 0 5 -23 26 -51 46
l-51 37 28 29 c15 16 36 31 46 35 37 11 16 24 -39 24 -82 0 -95 12 -44 41 23
12 40 28 38 33 -8 24 -60 16 -145 -23 -150 -67 -191 -76 -335 -74 -71 1 -131
4 -134 7 -3 2 18 74 46 158 27 84 62 191 75 238 14 47 32 103 40 125 8 22 15
54 16 72 0 17 3 34 8 36 4 3 39 -22 77 -55 86 -73 190 -145 270 -185 74 -38
215 -88 273 -98 42 -7 43 -6 38 19 -3 14 0 26 5 26 5 0 9 -10 10 -22 1 -23 1
-23 8 1 6 22 8 23 23 8 18 -18 118 -25 118 -8 0 11 105 44 133 43 9 0 15 3 12
8 -3 4 7 16 21 25 15 10 23 12 19 4 -6 -9 -3 -11 9 -6 10 4 22 7 27 7 6 0 7 5
4 10 -4 6 -12 7 -18 4 -7 -4 6 12 28 35 46 48 62 56 19 9 l-29 -33 32 29 c17
15 29 34 27 41 -3 6 3 18 13 26 17 13 17 13 3 -6 -14 -18 -14 -19 2 -7 9 8 15
19 12 26 -2 6 3 20 12 31 8 11 12 14 8 6 -4 -9 -3 -12 4 -7 6 4 8 14 5 23 -4
11 -3 14 5 9 8 -5 10 -1 5 10 -4 12 -3 15 5 10 8 -5 10 -1 5 10 -5 13 -3 15 7
9 8 -5 11 -4 6 3 -3 6 7 50 23 99 58 171 63 307 19 469 -11 44 -21 89 -22 101
-1 11 -4 19 -7 17 -11 -6 -32 54 -23 67 5 8 3 9 -6 4 -10 -6 -12 -4 -7 9 5 11
3 15 -5 10 -8 -5 -9 -2 -5 10 5 11 3 15 -5 10 -8 -5 -9 -2 -5 10 5 11 3 15 -5
10 -8 -5 -9 -2 -5 10 4 10 3 15 -3 11 -5 -3 -15 6 -22 20 -10 23 -9 29 12 48
l24 22 -19 -25 -20 -25 22 18 c12 11 19 25 17 32 -3 7 0 16 7 21 8 5 10 3 4
-6 -5 -8 -4 -11 3 -6 6 4 9 13 6 20 -3 8 0 17 7 22 8 5 10 3 4 -6 -5 -8 -4
-11 3 -6 6 4 8 14 5 23 -4 11 -3 14 5 9 8 -5 10 -1 5 10 -3 10 -2 15 3 12 5
-4 10 4 11 15 15 162 15 188 -1 237 -9 28 -14 56 -10 62 5 7 2 8 -6 3 -10 -6
-12 -4 -7 8 3 9 1 19 -5 23 -7 5 -8 2 -3 -6 6 -9 4 -11 -4 -6 -7 5 -10 14 -7
21 4 11 -52 72 -99 106 -18 12 -19 12 -8 -2 8 -9 -11 -4 -49 15 -33 17 -55 32
-49 34 19 6 62 -8 56 -18 -7 -11 3 -13 60 -10 22 1 42 6 43 11 2 5 9 6 15 2 7
-3 9 -3 5 2 -4 4 -2 15 4 23 10 12 7 19 -17 39 -17 14 -23 22 -15 17 8 -4 12
-3 7 1 -4 5 -17 10 -30 11 -12 1 -56 12 -97 24 -88 26 -235 36 -247 17z
m-2308 -2044 c-2 -7 1 -15 7 -19 7 -5 8 -2 3 6 -5 8 -4 11 3 6 6 -4 9 -13 6
-20 -3 -8 0 -17 7 -22 8 -4 10 -3 5 4 -4 7 -5 12 -3 12 11 0 77 -112 72 -121
-4 -5 -1 -8 7 -7 7 2 12 -5 12 -14 -1 -10 1 -17 5 -16 18 2 21 -4 10 -24 -11
-21 -11 -22 5 -9 14 12 18 12 31 -5 8 -10 15 -22 15 -27 0 -13 -62 -117 -70
-117 -8 0 -24 36 -23 50 1 3 -8 22 -19 43 -11 22 -17 45 -14 53 3 8 2 13 -3
10 -12 -8 -35 50 -25 65 4 7 3 10 -3 6 -11 -7 -29 31 -69 147 -32 91 -30 99
11 51 19 -22 33 -45 30 -52z m2452 -208 c-4 -8 -10 -15 -14 -14 -19 3 -23 -2
-14 -20 9 -15 -1 -43 -49 -140 -33 -67 -62 -121 -65 -121 -3 0 0 10 6 23 9 18
9 20 -1 10 -7 -7 -13 -25 -14 -40 -1 -16 -6 -27 -13 -26 -8 2 -10 -4 -6 -14 5
-12 3 -14 -7 -8 -8 5 -11 4 -7 -3 8 -12 -2 -44 -12 -37 -4 2 -15 -10 -25 -28
l-18 -32 22 25 21 25 -16 -33 c-9 -18 -20 -30 -25 -27 -6 4 -7 -1 -3 -11 5
-13 3 -15 -7 -9 -9 5 -11 4 -6 -3 6 -10 -143 -297 -150 -289 -1 1 6 38 17 82
10 44 26 129 35 189 l16 110 61 78 c33 43 62 78 65 78 2 0 -2 -8 -9 -17 -13
-16 -12 -17 3 -5 9 8 15 19 12 26 -3 7 6 21 18 32 23 19 23 19 8 -1 -14 -18
-14 -19 2 -6 10 7 15 17 12 23 -6 9 21 44 114 156 42 50 62 61 49 27z"/>
<path d="M3046 4139 c2 -3 -13 -13 -32 -22 -41 -20 -48 -21 -38 -6 3 6 -8 3
-25 -5 -17 -9 -31 -19 -31 -22 0 -2 9 0 20 6 11 6 20 8 20 6 0 -3 -14 -13 -31
-22 -18 -9 -28 -11 -24 -4 6 9 2 9 -14 1 -11 -7 -21 -14 -21 -17 0 -3 5 -2 10
1 6 3 10 4 10 2 0 -2 -19 -17 -42 -32 -32 -21 -39 -23 -28 -9 22 29 -2 5 -54
-54 -25 -29 -46 -49 -46 -45 0 4 17 25 37 48 l38 40 -44 -41 -43 -41 17 -37
c20 -41 22 -42 48 -18 11 9 17 11 13 5 -4 -8 -2 -13 5 -13 7 0 5 -9 -7 -22
-10 -13 -4 -10 14 6 17 16 29 32 26 35 -3 3 -9 -1 -14 -9 -7 -11 -10 -11 -10
-2 0 15 47 35 62 26 7 -4 8 -2 4 4 -6 11 0 14 20 11 4 0 10 3 13 8 3 4 38 25
78 45 50 26 73 34 76 25 4 -8 6 -7 6 3 1 8 15 23 32 32 17 10 27 13 23 5 -5
-8 -4 -9 4 -2 19 17 44 85 30 83 -7 -2 -12 4 -13 12 0 9 -8 14 -19 12 -10 -2
-16 0 -13 5 3 4 -10 8 -28 8 -18 0 -31 -3 -29 -6z"/>
<path d="M3085 3611 c-126 -58 -154 -219 -57 -323 l25 -27 -29 -6 c-16 -4 -33
-8 -39 -10 -5 -1 13 -25 41 -52 61 -60 114 -78 212 -71 131 10 274 105 327
220 19 40 25 70 25 121 0 68 -10 84 -30 47 -12 -22 -115 -102 -164 -127 l-29
-15 7 34 c3 20 0 55 -9 84 -34 117 -168 177 -280 125z"/>
</g>
</svg>
